<svg width="473" height="80" viewBox="0 0 473 80" fill="none" xmlns="http://www.w3.org/2000/svg">
<path fill-rule="evenodd" clip-rule="evenodd" d="M37.4036 8.09119C30.173 8.57849 22.8734 11.9136 17.4852 17.1911L15.9037 18.7403L13.9679 16.8779C12.1631 15.1414 8.67431 12.4764 8.20588 12.4764C8.09202 12.4764 7.99951 19.398 8 27.8579C8.00098 44.7172 8.06454 45.6768 9.46443 50.042C10.3304 52.7422 11.9695 56.0318 13.5682 58.2776C15.2829 60.6867 19.02 64.4292 21.4478 66.1686C23.9747 67.9791 28.245 70.0847 30.8284 70.7943C38.6153 72.933 47.4605 72.193 54.1724 68.8409C62.6289 64.6179 69.2578 56.2958 71.3438 47.2838C72.0473 44.2443 72.221 37.8966 71.6893 34.6605C70.7048 28.6702 68.0628 23.2197 63.9657 18.7271C56.8139 10.8846 48.046 7.37396 37.4036 8.09119ZM43.9204 24.4806C49.8299 25.9903 54.6285 31.007 55.7298 36.8264C56.195 39.2843 56.1891 40.9528 55.7074 43.3109C53.4738 54.2443 40.4618 59.577 31.168 53.3675C28.1663 51.3619 25.6747 48.0937 24.6645 44.8363C23.9649 42.5814 23.8002 39.0492 24.2873 36.7436C25.3164 31.871 29.1559 27.1593 33.7008 25.1917C36.5794 23.9455 40.703 23.6587 43.9204 24.4806Z" fill="white"/>
<path fill-rule="evenodd" clip-rule="evenodd" d="M82 24.1775C82 33.0746 82.2023 41.4428 82.4495 42.7728C86.1137 62.4878 114.072 62.4663 117.634 42.7455C119.528 32.2543 111.792 22.0412 101.502 21.4478C97.8758 21.2391 93.2334 22.0908 93.2442 22.9631C93.2634 24.4508 93.9231 24.6466 96.5179 23.9353C111.553 19.8131 122.129 39.6695 110.966 51.0598C103.15 59.0339 89.1796 55.8551 85.2115 45.2005C84.4207 43.0775 84.3411 41.266 84.3411 25.4315V8.00001H83.1705H82V24.1775ZM305.243 26.0339L305.105 44.0679L303.846 46.5004C295.974 61.7234 274.202 56.6037 274.202 39.5295C274.202 28.5955 286.225 19.4997 294.493 24.1785C295.724 24.8755 295.742 24.8683 296.166 23.4581C297.616 18.6374 281.612 21.6294 276.579 27.1198C260.788 44.344 285.984 68.9117 302.318 52.2168C307.267 47.1592 307.68 44.9999 307.68 24.1775V8.00001H306.53H305.381L305.243 26.0339ZM318.917 11.8218C318.917 15.58 318.937 15.6435 320.087 15.6435C321.238 15.6435 321.258 15.58 321.258 11.8218C321.258 8.06355 321.238 8.00001 320.087 8.00001C318.937 8.00001 318.917 8.06355 318.917 11.8218ZM378.848 11.8218C378.848 15.58 378.868 15.6435 380.019 15.6435C381.17 15.6435 381.189 15.58 381.189 11.8218C381.189 8.06355 381.17 8.00001 380.019 8.00001C378.868 8.00001 378.848 8.06355 378.848 11.8218ZM392.522 25.7951C392.682 46.3194 392.763 46.7689 397.179 51.6985C401.036 56.0042 410.219 59.6205 410.219 56.8335C410.219 56.0376 409.761 55.751 407.804 55.3229C402.938 54.2581 398.523 50.7999 396.089 46.1455C395.069 44.1973 394.992 43.4511 394.851 34.1552L394.7 24.2425H398.48C402.199 24.2425 402.259 24.2234 402.259 23.0482C402.259 21.8739 402.197 21.8539 398.513 21.8539H394.768V14.9269V8.00001H393.576H392.384L392.522 25.7951ZM462.659 32.6026V57.2051H463.829H465V32.6026V8.00001H463.829H462.659V32.6026ZM181.554 22.13C177.278 23.5221 173.075 27.179 171.014 31.3027L170.064 33.2026L185.475 40.0646L200.886 46.9265L200.142 48.1247C193.807 58.3273 177.541 57.6647 172.783 47.0106C172.425 46.2095 171.995 45.9281 171.38 46.0924C170.175 46.4139 170.261 47.0904 171.824 49.6061C178.782 60.7995 196.187 59.9998 202.483 48.1973L203.733 45.8545L191.678 40.4931C185.048 37.5446 178.281 34.5679 176.641 33.879C173.006 32.3508 172.815 31.9343 174.661 29.5557C180.33 22.2528 191.335 21.5763 197.764 28.1359C200.553 30.9817 203.089 30.8828 200.728 28.0203C196.165 22.4869 188.084 20.0046 181.554 22.13ZM224.337 22.1119C204.719 27.684 208.466 57.444 228.785 57.444C235.324 57.444 243.621 53.2673 241.461 51.0636C240.809 50.3981 240.611 50.4435 239.444 51.5284C229.707 60.5802 214.336 53.9524 213.664 40.4119C212.979 26.6206 228.631 18.5318 238.807 27.4188C241.95 30.1638 243.416 28.4751 240.335 25.6584C236.513 22.1639 229.571 20.6252 224.337 22.1119ZM343.866 22.0416C324.362 28.5319 328.459 57.444 348.883 57.444C354.376 57.444 356.251 56.8445 355.462 55.3396C355.037 54.5309 354.829 54.517 352.529 55.1433C342.671 57.8257 333.057 49.5688 333.513 38.8129C334.215 22.269 355.667 17.7861 363.322 32.5835C365.117 36.0532 365.503 54.7798 363.871 59.2302C360.291 68.9924 348.628 72.7411 340.078 66.8775C336.643 64.5219 334.902 65.5977 338.043 68.1349C348.486 76.5743 364.193 70.4471 366.632 56.983C367.263 53.5009 367.304 39.572 366.694 36.2863C364.748 25.818 353.539 18.8232 343.866 22.0416ZM428.245 22.0168C412.406 27.3596 411.001 49.0586 426.036 56.1456C430.417 58.2103 440.782 58.0498 439.985 55.9296C439.837 55.5374 439.716 55.0502 439.716 54.8476C439.716 54.6446 438.61 54.7836 437.258 55.1557C429.599 57.2653 420.659 52.2498 418.403 44.5781C413.581 28.177 432.619 16.449 444.469 28.5205C448.816 32.9485 449.081 34.0095 449.081 47.0211V57.2051H450.296H451.511L451.322 46.337C451.147 36.3111 451.047 35.2472 450.03 32.6059C446.916 24.5153 436.233 19.3224 428.245 22.0168ZM318.917 39.5295V57.2051H320.087H321.258V39.5295V21.8539H320.087H318.917V39.5295ZM378.848 39.5295V57.2051H380.019H381.189V39.5295V21.8539H380.019H378.848V39.5295Z" fill="white"/>
<path d="M127.185 42.7727C126.938 41.4428 126.735 33.0746 126.735 24.1775V8H127.906H129.076V25.4315C129.076 41.266 129.156 43.0775 129.947 45.2005C133.915 55.8551 147.886 59.0339 155.701 51.0598C166.865 39.6695 156.288 19.8131 141.253 23.9353C138.658 24.6466 137.999 24.4508 137.98 22.9631C137.969 22.0908 142.611 21.2391 146.237 21.4478C156.527 22.0411 164.264 32.2543 162.369 42.7455C158.808 62.4663 130.849 62.4878 127.185 42.7727Z" fill="white"/>
<path d="M127.05 26.2728C126.919 8.30814 126.933 8.00001 127.848 8.00001C128.758 8.00001 128.782 8.40034 128.917 25.7951C129.077 46.2797 129.123 46.5286 133.569 50.7722C141.792 58.6202 153.967 56.5196 158.844 46.4106C164.567 34.5502 153.489 20.5067 141.094 23.91C138.181 24.7097 136.541 23.5283 138.765 22.2322C145.163 18.5051 157.287 23.9501 160.996 32.2171C170.559 53.5305 138.64 68.3508 128.509 47.3011M82 24.1775C82 33.0746 82.2023 41.4428 82.4495 42.7728C86.1137 62.4878 114.072 62.4663 117.634 42.7455C119.528 32.2543 111.792 22.0412 101.502 21.4478C97.8758 21.2391 93.2334 22.0908 93.2442 22.9631C93.2634 24.4508 93.9231 24.6466 96.5179 23.9353C111.553 19.8131 122.129 39.6695 110.966 51.0598C103.15 59.0339 89.1796 55.8551 85.2115 45.2005C84.4207 43.0775 84.3411 41.266 84.3411 25.4315V8.00001H83.1705H82V24.1775ZM305.243 26.0339L305.105 44.0679L303.846 46.5004C295.974 61.7234 274.202 56.6037 274.202 39.5295C274.202 28.5955 286.225 19.4997 294.493 24.1785C295.724 24.8755 295.742 24.8683 296.166 23.4581C297.616 18.6374 281.612 21.6294 276.579 27.1198C260.788 44.344 285.984 68.9117 302.318 52.2168C307.267 47.1592 307.68 44.9999 307.68 24.1775V8.00001H306.53H305.381L305.243 26.0339ZM318.917 11.8218C318.917 15.58 318.937 15.6435 320.087 15.6435C321.238 15.6435 321.258 15.58 321.258 11.8218C321.258 8.06355 321.238 8.00001 320.087 8.00001C318.937 8.00001 318.917 8.06355 318.917 11.8218ZM378.848 11.8218C378.848 15.58 378.868 15.6435 380.019 15.6435C381.17 15.6435 381.189 15.58 381.189 11.8218C381.189 8.06355 381.17 8.00001 380.019 8.00001C378.868 8.00001 378.848 8.06355 378.848 11.8218ZM392.522 25.7951C392.682 46.3194 392.763 46.7689 397.179 51.6985C401.036 56.0042 410.219 59.6205 410.219 56.8335C410.219 56.0376 409.761 55.751 407.804 55.3229C402.938 54.2581 398.523 50.7999 396.089 46.1455C395.069 44.1973 394.992 43.4511 394.851 34.1552L394.7 24.2425H398.48C402.199 24.2425 402.259 24.2234 402.259 23.0482C402.259 21.8739 402.197 21.8539 398.513 21.8539H394.768V14.9269V8.00001H393.576H392.384L392.522 25.7951ZM462.659 32.6026V57.2051H463.829H465V32.6026V8.00001H463.829H462.659V32.6026ZM181.554 22.13C177.278 23.5221 173.075 27.179 171.014 31.3027L170.064 33.2026L185.475 40.0646L200.886 46.9265L200.142 48.1247C193.807 58.3273 177.541 57.6647 172.783 47.0106C172.425 46.2095 171.995 45.9281 171.38 46.0924C170.175 46.4139 170.261 47.0904 171.824 49.6061C178.782 60.7995 196.187 59.9998 202.483 48.1973L203.733 45.8545L191.678 40.4931C185.048 37.5446 178.281 34.5679 176.641 33.879C173.006 32.3508 172.815 31.9343 174.661 29.5557C180.33 22.2528 191.335 21.5763 197.764 28.1359C200.553 30.9817 203.089 30.8828 200.728 28.0203C196.165 22.4869 188.084 20.0046 181.554 22.13ZM224.337 22.1119C204.719 27.684 208.466 57.444 228.785 57.444C235.324 57.444 243.621 53.2673 241.461 51.0636C240.809 50.3981 240.611 50.4435 239.444 51.5284C229.707 60.5802 214.336 53.9524 213.664 40.4119C212.979 26.6206 228.631 18.5318 238.807 27.4188C241.95 30.1638 243.416 28.4751 240.335 25.6584C236.513 22.1639 229.571 20.6252 224.337 22.1119ZM343.866 22.0416C324.362 28.5319 328.459 57.444 348.883 57.444C354.376 57.444 356.251 56.8445 355.462 55.3396C355.037 54.5309 354.829 54.517 352.529 55.1433C342.671 57.8257 333.057 49.5688 333.513 38.8129C334.215 22.269 355.667 17.7861 363.322 32.5835C365.117 36.0532 365.503 54.7798 363.871 59.2302C360.291 68.9924 348.628 72.7411 340.078 66.8775C336.643 64.5219 334.902 65.5977 338.043 68.1349C348.486 76.5743 364.193 70.4471 366.632 56.983C367.263 53.5009 367.304 39.572 366.694 36.2863C364.748 25.818 353.539 18.8232 343.866 22.0416ZM428.245 22.0168C412.406 27.3596 411.001 49.0586 426.036 56.1456C430.417 58.2103 440.782 58.0498 439.985 55.9296C439.837 55.5374 439.716 55.0502 439.716 54.8476C439.716 54.6446 438.61 54.7836 437.258 55.1557C429.599 57.2653 420.659 52.2498 418.403 44.5781C413.581 28.177 432.619 16.449 444.469 28.5205C448.816 32.9485 449.081 34.0095 449.081 47.0211V57.2051H450.296H451.511L451.322 46.337C451.147 36.3111 451.047 35.2472 450.03 32.6059C446.916 24.5153 436.233 19.3224 428.245 22.0168ZM318.917 39.5295V57.2051H320.087H321.258V39.5295V21.8539H320.087H318.917V39.5295ZM378.848 39.5295V57.2051H380.019H381.189V39.5295V21.8539H380.019H378.848V39.5295ZM126.735 24.1775C126.735 33.0746 126.938 41.4428 127.185 42.7727C130.849 62.4878 158.808 62.4663 162.369 42.7455C164.264 32.2543 156.527 22.0411 146.237 21.4478C142.611 21.2391 137.969 22.0908 137.98 22.9631C137.999 24.4508 138.658 24.6466 141.253 23.9353C156.288 19.8131 166.865 39.6695 155.701 51.0598C147.886 59.0339 133.915 55.8551 129.947 45.2005C129.156 43.0775 129.076 41.266 129.076 25.4315V8H127.906H126.735V24.1775Z" stroke="white"/>
</svg>
