<svg width="50" height="50" viewBox="0 0 50 50" fill="none" xmlns="http://www.w3.org/2000/svg">
<rect width="50" height="50" rx="8" fill="#FFA039"/>
<path fill-rule="evenodd" clip-rule="evenodd" d="M23.7322 9.41953C20.2017 9.65747 16.6374 11.286 14.0064 13.8629L13.2342 14.6193L12.289 13.7099C11.4078 12.862 9.70425 11.5608 9.47553 11.5608C9.41993 11.5608 9.37476 14.9404 9.375 19.0712C9.37548 27.3033 9.40651 27.7719 10.0901 29.9033C10.5129 31.2218 11.3132 32.828 12.0938 33.9246C12.9311 35.1009 14.7559 36.9283 15.9413 37.7776C17.1751 38.6616 19.2603 39.6898 20.5217 40.0363C24.3239 41.0806 28.6428 40.7192 31.9201 39.0825C36.0493 37.0205 39.286 32.9569 40.3046 28.5566C40.6481 27.0724 40.7329 23.973 40.4733 22.3928C39.9926 19.4679 38.7025 16.8065 36.702 14.6128C33.2099 10.7835 28.9287 9.06932 23.7322 9.41953ZM26.9143 17.4222C29.7997 18.1593 32.1428 20.6089 32.6806 23.4504C32.9077 24.6505 32.9048 25.4652 32.6697 26.6166C31.579 31.9552 25.2255 34.5591 20.6875 31.5271C19.2218 30.5478 18.0052 28.952 17.5119 27.3615C17.1704 26.2605 17.09 24.5357 17.3278 23.4099C17.8303 21.0308 19.705 18.7301 21.9242 17.7694C23.3298 17.1609 25.3432 17.0208 26.9143 17.4222Z" fill="#3E0668"/>
</svg>
